<svg version="1.1" id="Layer_1" xmlns="http://www.w3.org/2000/svg" xmlns:xlink="http://www.w3.org/1999/xlink" x="0px" y="0px"
	 width="100%" viewBox="0 0 1440 1434" enable-background="new 0 0 1440 1434" xml:space="preserve">
<path fill="#0000FF" opacity="1.000000" stroke="none" 
	d="
M800.000000,1435.000000 
	C533.333374,1435.000000 267.166748,1435.000000 1.000107,1435.000000 
	C1.000071,957.000122 1.000071,479.000275 1.000036,1.000300 
	C480.999786,1.000200 960.999573,1.000200 1440.999512,1.000100 
	C1440.999756,478.999725 1440.999756,956.999451 1440.999878,1434.999512 
	C1227.500000,1435.000000 1014.000000,1435.000000 800.000000,1435.000000 
M741.816406,922.349243 
	C741.863647,931.999207 742.850891,933.000305 752.338013,933.000916 
	C770.834351,933.002197 789.330627,933.003174 807.826965,933.000610 
	C816.027588,932.999451 817.867676,931.226990 817.868225,923.147644 
	C817.876038,803.837952 817.874939,684.528320 817.869080,565.218628 
	C817.868713,557.733276 815.976501,555.846008 808.414246,555.837830 
	C789.251343,555.817078 770.086426,555.989563 750.926880,555.735291 
	C745.188477,555.659180 741.741272,557.735046 739.052795,562.786133 
	C724.918152,589.341797 710.539368,615.767700 696.208496,642.218689 
	C695.303406,643.889282 694.086304,645.390930 692.608582,647.569275 
	C691.089600,645.245239 689.922729,643.671936 688.973938,641.976562 
	C674.280701,615.719727 659.522400,589.498352 645.022156,563.135193 
	C642.087097,557.799011 638.334900,555.629395 632.232910,555.726074 
	C613.907776,556.016663 595.575195,555.827881 577.245483,555.831909 
	C567.635498,555.834045 566.643799,556.822754 566.643677,566.413147 
	C566.642090,684.889648 566.642517,803.366150 566.645081,921.842651 
	C566.645081,923.341736 566.601379,924.846802 566.714722,926.338684 
	C567.039978,930.622192 569.092041,933.030701 573.691345,933.019043 
	C594.353760,932.966675 615.016418,932.974731 635.678894,933.009705 
	C639.771790,933.016602 641.804443,930.848816 642.298645,927.052063 
	C642.555115,925.081543 642.522705,923.065979 642.523010,921.070740 
	C642.532898,843.752747 642.527222,766.434753 642.553711,689.116760 
	C642.554443,686.946045 642.882751,684.775452 643.058289,682.604736 
	C643.599548,682.465088 644.140747,682.325439 644.682007,682.185791 
	C647.773499,687.602539 650.880615,693.010376 653.953613,698.437561 
	C665.256958,718.400269 676.510864,738.391113 687.869324,758.322449 
	C691.135559,764.054016 693.047546,764.012756 696.446960,758.480774 
	C697.143005,757.348022 697.778503,756.177795 698.433044,755.019836 
	C711.276367,732.299622 724.107117,709.572266 736.983765,686.870911 
	C737.899353,685.256836 739.148254,683.831848 740.242126,682.318970 
	C740.766846,682.458252 741.291626,682.597534 741.816345,682.736816 
	C741.816345,762.287292 741.816345,841.837830 741.816406,922.349243 
M947.036194,597.447571 
	C940.562622,585.829712 933.984497,574.268311 927.666138,562.566650 
	C925.080566,557.778076 921.560730,555.690063 916.043091,555.752502 
	C897.546936,555.961853 879.046997,555.830139 860.548462,555.832458 
	C850.522644,555.833679 849.602966,556.734619 849.602844,566.587952 
	C849.601440,684.911804 849.601257,803.235596 849.608398,921.559448 
	C849.608521,923.389954 849.574707,925.235840 849.786133,927.047791 
	C850.235779,930.902344 852.331116,933.007507 856.387207,933.002808 
	C877.218811,932.978638 898.050476,932.984619 918.882080,932.994751 
	C922.719299,932.996582 924.710938,930.905273 925.213135,927.318176 
	C925.488525,925.351440 925.474304,923.334534 925.474609,921.340210 
	C925.486328,843.846436 925.481140,766.352661 925.503540,688.858887 
	C925.504150,686.819336 925.786743,684.779846 925.937805,682.740356 
	C926.354492,682.622070 926.771240,682.503784 927.187927,682.385437 
	C928.441711,684.184448 929.848999,685.896423 930.925964,687.795715 
	C944.211243,711.223694 957.419189,734.695618 970.717957,758.115967 
	C974.136902,764.137268 976.040222,764.105835 979.569641,758.275818 
	C980.085938,757.423035 980.537292,756.531189 981.028503,755.662964 
	C993.964722,732.800171 1006.889771,709.930969 1019.864746,687.090149 
	C1020.819092,685.410156 1022.134033,683.935059 1023.281250,682.364685 
	C1024.595459,684.998230 1024.778320,687.100159 1024.778809,689.202087 
	C1024.793457,767.195801 1024.787842,845.189575 1024.795898,923.183289 
	C1024.796753,931.663696 1026.160767,932.997742 1034.647827,932.999390 
	C1053.312988,933.003052 1071.978149,933.001953 1090.643311,933.000000 
	C1099.047852,932.999146 1100.846558,931.221741 1100.846924,922.800537 
	C1100.851929,803.643433 1100.851929,684.486328 1100.846924,565.329224 
	C1100.846558,557.759033 1098.979736,555.848267 1091.497070,555.839478 
	C1072.331909,555.816895 1053.163940,556.021423 1034.003418,555.721619 
	C1027.980591,555.627441 1024.615601,557.976685 1021.861755,563.154175 
	C1007.811707,589.569946 993.486694,615.839539 979.224426,642.142212 
	C978.315125,643.819153 977.123840,645.343323 975.367981,647.985535 
	C965.690857,630.731079 956.539246,614.413757 947.036194,597.447571 
M320.873444,749.499939 
	C320.873718,773.993835 320.554077,798.493713 321.017029,822.978882 
	C321.229950,834.241333 321.884613,845.708618 324.232208,856.677795 
	C331.315948,889.776611 349.833588,914.431580 381.203522,928.318848 
	C402.343597,937.677551 424.685089,939.028198 447.290253,935.854736 
	C480.293854,931.221680 505.053650,914.263306 521.183167,884.982239 
	C531.854492,865.609985 534.814331,844.485840 534.829407,822.792969 
	C534.888794,737.147583 534.855286,651.502197 534.852295,565.856812 
	C534.851990,557.566162 533.171204,555.841553 525.032166,555.835388 
	C506.370148,555.821350 487.708099,555.825500 469.046082,555.833374 
	C460.103119,555.837158 458.904022,557.023193 458.903839,565.821411 
	C458.902161,653.632935 458.940887,741.444458 458.820221,829.255798 
	C458.811829,835.368774 458.310608,841.650635 456.841309,847.556091 
	C453.945129,859.196411 446.187927,870.200562 430.518494,871.815369 
	C418.988190,873.003662 407.905029,866.970886 401.632935,855.222168 
	C397.426025,847.341919 396.798828,838.756531 396.801819,830.022766 
	C396.831879,741.877991 396.821503,653.733215 396.816498,565.588440 
	C396.816040,557.545166 395.167969,555.845581 387.285858,555.837341 
	C368.290588,555.817505 349.295288,555.817871 330.300018,555.837402 
	C322.245178,555.845703 320.875580,557.278259 320.875183,565.545349 
	C320.872223,626.530212 320.873505,687.515015 320.873444,749.499939 
M1300.219482,637.174622 
	C1294.823853,612.144470 1289.399780,587.120361 1284.059326,562.078430 
	C1283.097412,557.568481 1280.535767,555.767944 1275.968872,555.787109 
	C1252.475220,555.885986 1228.980347,555.909180 1205.487061,555.771912 
	C1200.390869,555.742126 1197.885254,557.939819 1196.906372,562.776306 
	C1194.960693,572.389954 1192.808960,581.962036 1190.721313,591.546814 
	C1166.588989,702.340820 1142.450439,813.133423 1118.322998,923.928467 
	C1116.779785,931.015259 1118.390381,932.984131 1125.762207,932.993225 
	C1145.090698,933.017090 1164.419189,933.013184 1183.747681,932.995361 
	C1191.525635,932.988220 1192.718872,931.800537 1193.984985,923.985291 
	C1196.539429,908.219604 1199.322510,892.490173 1201.750732,876.705627 
	C1202.253174,873.439758 1203.761230,872.505798 1206.647583,872.507874 
	C1228.475464,872.523376 1250.303223,872.534912 1272.131104,872.491516 
	C1275.279785,872.485291 1276.798096,873.527588 1277.322388,876.963135 
	C1279.731567,892.750427 1282.485229,908.484924 1285.053833,924.248352 
	C1286.230957,931.472351 1287.560425,932.961548 1294.031372,932.979431 
	C1314.859375,933.037109 1335.687744,933.035889 1356.515625,932.977600 
	C1362.504761,932.960876 1363.789062,931.128723 1362.496582,925.148743 
	C1341.809570,829.427856 1321.128052,733.705750 1300.219482,637.174622 
M162.079575,554.454468 
	C132.318558,561.314148 108.597977,577.037354 96.398392,605.413574 
	C78.020119,648.161499 83.892006,688.661560 112.800667,725.376404 
	C126.348679,742.582764 144.211243,755.036987 161.326462,768.298523 
	C177.507904,780.836548 193.817062,793.243408 209.457077,806.434692 
	C220.176651,815.475769 224.140945,827.860840 222.955643,841.895935 
	C221.799637,855.583923 212.838760,867.770264 201.349640,870.915405 
	C185.053131,875.376404 169.259079,866.422485 165.068268,849.213501 
	C163.131668,841.261108 163.457886,832.740479 162.939911,824.466125 
	C162.620453,819.362976 160.734085,816.647095 155.910507,816.608704 
	C135.579361,816.446472 115.245613,816.455383 94.914215,816.599426 
	C90.467804,816.630920 87.895584,819.154602 87.962067,823.936279 
	C88.059380,830.935120 87.705521,837.955505 88.123390,844.932007 
	C90.398300,882.912598 108.206421,910.866943 142.702972,927.416504 
	C161.808502,936.582336 182.368088,938.335999 203.218674,936.823059 
	C231.183350,934.793945 255.609467,924.900513 274.467316,903.393921 
	C288.469269,887.425293 295.176666,868.475220 297.323303,847.561646 
	C300.468811,816.917114 294.367279,788.738892 272.424683,766.362000 
	C257.918030,751.568115 241.332672,738.774292 225.359085,725.467896 
	C209.122787,711.942627 192.228455,699.200500 176.141174,685.505920 
	C166.799194,677.553284 161.799561,666.752869 161.437881,654.317383 
	C161.072525,641.755981 163.328217,629.900085 174.240204,621.827209 
	C190.618256,609.710388 214.399963,619.567200 218.705536,640.590942 
	C220.322556,648.486816 220.064301,656.789795 220.400665,664.917969 
	C220.708984,672.368591 222.258881,674.155945 229.463501,674.162964 
	C248.630035,674.181519 267.796631,674.185303 286.963135,674.160156 
	C293.354248,674.151733 295.520264,672.270081 295.398132,665.892456 
	C295.213348,656.245117 295.334106,646.500977 294.004517,636.982483 
	C288.603546,598.316650 267.635071,571.538635 230.901764,558.004517 
	C208.790970,549.857971 185.861511,550.185059 162.079575,554.454468 
z"/>
<path fill="#FEFEFF" opacity="1.000000" stroke="none" 
	d="
M741.816406,921.868774 
	C741.816345,841.837830 741.816345,762.287292 741.816345,682.736816 
	C741.291626,682.597534 740.766846,682.458252 740.242126,682.318970 
	C739.148254,683.831848 737.899353,685.256836 736.983765,686.870911 
	C724.107117,709.572266 711.276367,732.299622 698.433044,755.019836 
	C697.778503,756.177795 697.143005,757.348022 696.446960,758.480774 
	C693.047546,764.012756 691.135559,764.054016 687.869324,758.322449 
	C676.510864,738.391113 665.256958,718.400269 653.953613,698.437561 
	C650.880615,693.010376 647.773499,687.602539 644.682007,682.185791 
	C644.140747,682.325439 643.599548,682.465088 643.058289,682.604736 
	C642.882751,684.775452 642.554443,686.946045 642.553711,689.116760 
	C642.527222,766.434753 642.532898,843.752747 642.523010,921.070740 
	C642.522705,923.065979 642.555115,925.081543 642.298645,927.052063 
	C641.804443,930.848816 639.771790,933.016602 635.678894,933.009705 
	C615.016418,932.974731 594.353760,932.966675 573.691345,933.019043 
	C569.092041,933.030701 567.039978,930.622192 566.714722,926.338684 
	C566.601379,924.846802 566.645081,923.341736 566.645081,921.842651 
	C566.642517,803.366150 566.642090,684.889648 566.643677,566.413147 
	C566.643799,556.822754 567.635498,555.834045 577.245483,555.831909 
	C595.575195,555.827881 613.907776,556.016663 632.232910,555.726074 
	C638.334900,555.629395 642.087097,557.799011 645.022156,563.135193 
	C659.522400,589.498352 674.280701,615.719727 688.973938,641.976562 
	C689.922729,643.671936 691.089600,645.245239 692.608582,647.569275 
	C694.086304,645.390930 695.303406,643.889282 696.208496,642.218689 
	C710.539368,615.767700 724.918152,589.341797 739.052795,562.786133 
	C741.741272,557.735046 745.188477,555.659180 750.926880,555.735291 
	C770.086426,555.989563 789.251343,555.817078 808.414246,555.837830 
	C815.976501,555.846008 817.868713,557.733276 817.869080,565.218628 
	C817.874939,684.528320 817.876038,803.837952 817.868225,923.147644 
	C817.867676,931.226990 816.027588,932.999451 807.826965,933.000610 
	C789.330627,933.003174 770.834351,933.002197 752.338013,933.000916 
	C742.850891,933.000305 741.863647,931.999207 741.816406,921.868774 
z"/>
<path fill="#FEFEFF" opacity="1.000000" stroke="none" 
	d="
M947.211914,597.771973 
	C956.539246,614.413757 965.690857,630.731079 975.367981,647.985535 
	C977.123840,645.343323 978.315125,643.819153 979.224426,642.142212 
	C993.486694,615.839539 1007.811707,589.569946 1021.861755,563.154175 
	C1024.615601,557.976685 1027.980591,555.627441 1034.003418,555.721619 
	C1053.163940,556.021423 1072.331909,555.816895 1091.497070,555.839478 
	C1098.979736,555.848267 1100.846558,557.759033 1100.846924,565.329224 
	C1100.851929,684.486328 1100.851929,803.643433 1100.846924,922.800537 
	C1100.846558,931.221741 1099.047852,932.999146 1090.643311,933.000000 
	C1071.978149,933.001953 1053.312988,933.003052 1034.647827,932.999390 
	C1026.160767,932.997742 1024.796753,931.663696 1024.795898,923.183289 
	C1024.787842,845.189575 1024.793457,767.195801 1024.778809,689.202087 
	C1024.778320,687.100159 1024.595459,684.998230 1023.281250,682.364685 
	C1022.134033,683.935059 1020.819092,685.410156 1019.864746,687.090149 
	C1006.889771,709.930969 993.964722,732.800171 981.028503,755.662964 
	C980.537292,756.531189 980.085938,757.423035 979.569641,758.275818 
	C976.040222,764.105835 974.136902,764.137268 970.717957,758.115967 
	C957.419189,734.695618 944.211243,711.223694 930.925964,687.795715 
	C929.848999,685.896423 928.441711,684.184448 927.187927,682.385437 
	C926.771240,682.503784 926.354492,682.622070 925.937805,682.740356 
	C925.786743,684.779846 925.504150,686.819336 925.503540,688.858887 
	C925.481140,766.352661 925.486328,843.846436 925.474609,921.340210 
	C925.474304,923.334534 925.488525,925.351440 925.213135,927.318176 
	C924.710938,930.905273 922.719299,932.996582 918.882080,932.994751 
	C898.050476,932.984619 877.218811,932.978638 856.387207,933.002808 
	C852.331116,933.007507 850.235779,930.902344 849.786133,927.047791 
	C849.574707,925.235840 849.608521,923.389954 849.608398,921.559448 
	C849.601257,803.235596 849.601440,684.911804 849.602844,566.587952 
	C849.602966,556.734619 850.522644,555.833679 860.548462,555.832458 
	C879.046997,555.830139 897.546936,555.961853 916.043091,555.752502 
	C921.560730,555.690063 925.080566,557.778076 927.666138,562.566650 
	C933.984497,574.268311 940.562622,585.829712 947.211914,597.771973 
z"/>
<path fill="#FEFEFF" opacity="1.000000" stroke="none" 
	d="
M320.873444,748.999878 
	C320.873505,687.515015 320.872223,626.530212 320.875183,565.545349 
	C320.875580,557.278259 322.245178,555.845703 330.300018,555.837402 
	C349.295288,555.817871 368.290588,555.817505 387.285858,555.837341 
	C395.167969,555.845581 396.816040,557.545166 396.816498,565.588440 
	C396.821503,653.733215 396.831879,741.877991 396.801819,830.022766 
	C396.798828,838.756531 397.426025,847.341919 401.632935,855.222168 
	C407.905029,866.970886 418.988190,873.003662 430.518494,871.815369 
	C446.187927,870.200562 453.945129,859.196411 456.841309,847.556091 
	C458.310608,841.650635 458.811829,835.368774 458.820221,829.255798 
	C458.940887,741.444458 458.902161,653.632935 458.903839,565.821411 
	C458.904022,557.023193 460.103119,555.837158 469.046082,555.833374 
	C487.708099,555.825500 506.370148,555.821350 525.032166,555.835388 
	C533.171204,555.841553 534.851990,557.566162 534.852295,565.856812 
	C534.855286,651.502197 534.888794,737.147583 534.829407,822.792969 
	C534.814331,844.485840 531.854492,865.609985 521.183167,884.982239 
	C505.053650,914.263306 480.293854,931.221680 447.290253,935.854736 
	C424.685089,939.028198 402.343597,937.677551 381.203522,928.318848 
	C349.833588,914.431580 331.315948,889.776611 324.232208,856.677795 
	C321.884613,845.708618 321.229950,834.241333 321.017029,822.978882 
	C320.554077,798.493713 320.873718,773.993835 320.873444,748.999878 
z"/>
<path fill="#FEFEFF" opacity="1.000000" stroke="none" 
	d="
M1300.332275,637.579285 
	C1321.128052,733.705750 1341.809570,829.427856 1362.496582,925.148743 
	C1363.789062,931.128723 1362.504761,932.960876 1356.515625,932.977600 
	C1335.687744,933.035889 1314.859375,933.037109 1294.031372,932.979431 
	C1287.560425,932.961548 1286.230957,931.472351 1285.053833,924.248352 
	C1282.485229,908.484924 1279.731567,892.750427 1277.322388,876.963135 
	C1276.798096,873.527588 1275.279785,872.485291 1272.131104,872.491516 
	C1250.303223,872.534912 1228.475464,872.523376 1206.647583,872.507874 
	C1203.761230,872.505798 1202.253174,873.439758 1201.750732,876.705627 
	C1199.322510,892.490173 1196.539429,908.219604 1193.984985,923.985291 
	C1192.718872,931.800537 1191.525635,932.988220 1183.747681,932.995361 
	C1164.419189,933.013184 1145.090698,933.017090 1125.762207,932.993225 
	C1118.390381,932.984131 1116.779785,931.015259 1118.322998,923.928467 
	C1142.450439,813.133423 1166.588989,702.340820 1190.721313,591.546814 
	C1192.808960,581.962036 1194.960693,572.389954 1196.906372,562.776306 
	C1197.885254,557.939819 1200.390869,555.742126 1205.487061,555.771912 
	C1228.980347,555.909180 1252.475220,555.885986 1275.968872,555.787109 
	C1280.535767,555.767944 1283.097412,557.568481 1284.059326,562.078430 
	C1289.399780,587.120361 1294.823853,612.144470 1300.332275,637.579285 
M1227.899902,720.307190 
	C1222.974121,749.850037 1218.064575,779.395630 1213.101562,808.932251 
	C1212.503052,812.494019 1213.390625,814.118347 1217.410645,814.070801 
	C1232.073364,813.897156 1246.739746,813.948059 1261.403931,814.042236 
	C1264.871582,814.064453 1266.070923,813.200073 1265.403320,809.367493 
	C1257.123901,761.833923 1249.016479,714.270386 1240.813599,666.723328 
	C1240.566040,665.288452 1239.761230,663.949707 1239.216187,662.566162 
	C1238.617676,662.605591 1238.019043,662.645081 1237.420410,662.684570 
	C1234.279541,681.603333 1231.138672,700.522095 1227.899902,720.307190 
z"/>
<path fill="#FEFEFF" opacity="1.000000" stroke="none" 
	d="
M162.487564,554.343262 
	C185.861511,550.185059 208.790970,549.857971 230.901764,558.004517 
	C267.635071,571.538635 288.603546,598.316650 294.004517,636.982483 
	C295.334106,646.500977 295.213348,656.245117 295.398132,665.892456 
	C295.520264,672.270081 293.354248,674.151733 286.963135,674.160156 
	C267.796631,674.185303 248.630035,674.181519 229.463501,674.162964 
	C222.258881,674.155945 220.708984,672.368591 220.400665,664.917969 
	C220.064301,656.789795 220.322556,648.486816 218.705536,640.590942 
	C214.399963,619.567200 190.618256,609.710388 174.240204,621.827209 
	C163.328217,629.900085 161.072525,641.755981 161.437881,654.317383 
	C161.799561,666.752869 166.799194,677.553284 176.141174,685.505920 
	C192.228455,699.200500 209.122787,711.942627 225.359085,725.467896 
	C241.332672,738.774292 257.918030,751.568115 272.424683,766.362000 
	C294.367279,788.738892 300.468811,816.917114 297.323303,847.561646 
	C295.176666,868.475220 288.469269,887.425293 274.467316,903.393921 
	C255.609467,924.900513 231.183350,934.793945 203.218674,936.823059 
	C182.368088,938.335999 161.808502,936.582336 142.702972,927.416504 
	C108.206421,910.866943 90.398300,882.912598 88.123390,844.932007 
	C87.705521,837.955505 88.059380,830.935120 87.962067,823.936279 
	C87.895584,819.154602 90.467804,816.630920 94.914215,816.599426 
	C115.245613,816.455383 135.579361,816.446472 155.910507,816.608704 
	C160.734085,816.647095 162.620453,819.362976 162.939911,824.466125 
	C163.457886,832.740479 163.131668,841.261108 165.068268,849.213501 
	C169.259079,866.422485 185.053131,875.376404 201.349640,870.915405 
	C212.838760,867.770264 221.799637,855.583923 222.955643,841.895935 
	C224.140945,827.860840 220.176651,815.475769 209.457077,806.434692 
	C193.817062,793.243408 177.507904,780.836548 161.326462,768.298523 
	C144.211243,755.036987 126.348679,742.582764 112.800667,725.376404 
	C83.892006,688.661560 78.020119,648.161499 96.398392,605.413574 
	C108.597977,577.037354 132.318558,561.314148 162.487564,554.343262 
z"/>
<path fill="#0202FF" opacity="1.000000" stroke="none" 
	d="
M1227.948853,719.874023 
	C1231.138672,700.522095 1234.279541,681.603333 1237.420410,662.684570 
	C1238.019043,662.645081 1238.617676,662.605591 1239.216187,662.566162 
	C1239.761230,663.949707 1240.566040,665.288452 1240.813599,666.723328 
	C1249.016479,714.270386 1257.123901,761.833923 1265.403320,809.367493 
	C1266.070923,813.200073 1264.871582,814.064453 1261.403931,814.042236 
	C1246.739746,813.948059 1232.073364,813.897156 1217.410645,814.070801 
	C1213.390625,814.118347 1212.503052,812.494019 1213.101562,808.932251 
	C1218.064575,779.395630 1222.974121,749.850037 1227.948853,719.874023 
z"/>
</svg>