<svg version="1.1" id="Layer_1" xmlns="http://www.w3.org/2000/svg" xmlns:xlink="http://www.w3.org/1999/xlink" x="0px" y="0px"
	 width="100%" viewBox="0 0 1434 1434" enable-background="new 0 0 1434 1434" xml:space="preserve">
<path fill="#0000FF" opacity="1.000000" stroke="none" 
	d="
M795.000000,1435.000000 
	C530.000061,1435.000000 265.500092,1435.000000 1.000107,1435.000000 
	C1.000071,957.000122 1.000071,479.000275 1.000036,1.000299 
	C478.999786,1.000199 956.999573,1.000199 1434.999512,1.000100 
	C1434.999756,478.999725 1434.999756,956.999451 1434.999878,1434.999512 
	C1221.833374,1435.000000 1008.666687,1435.000000 795.000000,1435.000000 
M814.873779,922.249268 
	C814.873596,803.270874 814.874878,684.292542 814.869568,565.314148 
	C814.869202,557.754700 813.001282,555.847473 805.509460,555.838501 
	C786.346252,555.815674 767.180176,556.019653 748.021606,555.721191 
	C742.000977,555.627380 738.639587,557.976318 735.885437,563.155029 
	C721.838074,589.569580 707.512634,615.836365 693.250916,642.136658 
	C692.342041,643.812744 691.150574,645.335632 689.635559,647.614258 
	C688.040955,645.135681 686.812500,643.432617 685.793945,641.612061 
	C671.103577,615.352905 656.380432,589.111633 641.826843,562.776672 
	C639.104919,557.851379 635.547729,555.667603 629.823853,555.742126 
	C611.496948,555.981079 593.164978,555.829834 574.834961,555.831055 
	C564.444153,555.831787 563.643188,556.616394 563.643127,566.823730 
	C563.642212,684.968933 563.642090,803.114136 563.646912,921.259338 
	C563.646973,923.090759 563.600586,924.932678 563.770996,926.751465 
	C564.155029,930.850037 566.305420,933.022339 570.608215,933.013733 
	C591.270996,932.972473 611.933960,932.970825 632.596741,933.014282 
	C636.668762,933.022888 638.771851,930.952026 639.282227,927.132141 
	C639.545227,925.163025 639.522034,923.147278 639.522339,921.152588 
	C639.533020,843.833313 639.527466,766.514038 639.552429,689.194763 
	C639.553101,687.014038 639.862610,684.833374 640.028137,682.652710 
	C642.456848,684.088501 643.772217,685.715698 644.789185,687.511780 
	C657.976440,710.801514 671.098083,734.128357 684.291138,757.414795 
	C688.270142,764.437927 690.032166,764.366394 694.152344,757.248230 
	C695.151611,755.521851 696.126038,753.781006 697.107910,752.044556 
	C709.382202,730.338562 721.645142,708.626099 733.951233,686.938171 
	C734.871887,685.315430 736.099121,683.866577 737.183838,682.336914 
	C738.536255,684.745605 738.798096,686.802612 738.798645,688.859802 
	C738.819580,767.012268 738.813049,845.164734 738.821777,923.317200 
	C738.822693,931.578918 740.235291,932.996643 748.307739,932.999329 
	C767.137634,933.005554 785.967590,933.002991 804.797485,933.000549 
	C813.050354,932.999512 814.686768,931.400146 814.873779,922.249268 
M912.308044,933.000549 
	C921.053772,932.974548 922.436157,931.605774 922.483032,922.918335 
	C922.490234,921.585327 922.484497,920.252197 922.484497,918.919128 
	C922.484558,842.267212 922.479553,765.615295 922.510620,688.963379 
	C922.511475,686.844116 922.898743,684.725037 923.105774,682.605835 
	C923.546875,682.545227 923.987976,682.484680 924.429077,682.424072 
	C925.654480,684.330750 926.975159,686.183411 928.090759,688.152283 
	C941.203003,711.292969 954.264160,734.462646 967.386780,757.597412 
	C971.217651,764.351074 973.043579,764.294434 976.998291,757.505981 
	C977.416626,756.787781 977.801575,756.050232 978.210693,755.326599 
	C991.137512,732.462341 1004.053223,709.591736 1017.019348,686.749817 
	C1017.912354,685.176636 1019.182800,683.817749 1020.277649,682.359253 
	C1021.564819,684.723328 1021.773865,686.648926 1021.776001,688.574768 
	C1021.799500,709.737366 1021.790894,730.899963 1021.790894,752.062561 
	C1021.790955,808.884949 1021.788818,865.707336 1021.793030,922.529724 
	C1021.793701,931.849609 1022.923096,932.998901 1031.992065,932.999878 
	C1050.655151,933.001953 1069.318237,933.002869 1087.981323,932.999512 
	C1096.007202,932.998047 1097.845459,931.153259 1097.845825,922.964417 
	C1097.852173,803.654053 1097.852295,684.343750 1097.845337,565.033386 
	C1097.844849,557.828979 1095.894775,555.851624 1088.702759,555.841370 
	C1069.373169,555.813965 1050.041260,556.001526 1030.715454,555.730408 
	C1024.888306,555.648682 1021.611023,557.980835 1018.955933,562.962708 
	C1004.885498,589.363831 990.581299,615.640381 976.320129,641.939514 
	C975.362793,643.704956 974.092041,645.300476 972.525879,647.631714 
	C971.000610,645.277039 969.939758,643.825012 969.068848,642.266907 
	C954.386841,616.003784 939.624512,589.784546 925.149719,563.407471 
	C922.132385,557.909058 918.345581,555.605225 912.016724,555.717834 
	C893.859314,556.040833 875.692383,555.829956 857.529236,555.832397 
	C847.519104,555.833740 846.602966,556.734436 846.602844,566.605042 
	C846.601501,684.915588 846.601929,803.226074 846.602173,921.536621 
	C846.602173,922.703064 846.567261,923.871033 846.614136,925.035706 
	C846.860168,931.144409 848.726868,932.984192 854.862305,932.991882 
	C873.692017,933.015442 892.521729,933.000549 912.308044,933.000549 
M393.820007,668.500061 
	C393.819641,634.009094 393.826538,599.518188 393.813141,565.027222 
	C393.810303,557.711243 391.989044,555.852295 384.724365,555.841064 
	C365.562500,555.811462 346.400543,555.817322 327.238617,555.837830 
	C319.378143,555.846191 317.876740,557.349792 317.876404,565.106873 
	C317.872528,651.252197 317.761047,737.397827 318.014618,823.542419 
	C318.047241,834.625305 318.909485,845.933472 321.235748,856.739380 
	C328.359283,889.829468 346.882111,914.481262 378.258026,928.346741 
	C399.400238,937.689880 421.746826,939.037231 444.351379,935.847717 
	C477.350433,931.191650 502.097534,914.221375 518.211426,884.927551 
	C528.698792,865.862366 531.793518,845.083496 531.815857,823.730896 
	C531.905762,737.585693 531.855896,651.440308 531.850098,565.294983 
	C531.849548,557.750427 529.974182,555.847290 522.470093,555.838379 
	C503.641449,555.815979 484.812744,555.825134 465.984070,555.833618 
	C457.044312,555.837646 455.903900,556.981384 455.903748,565.883423 
	C455.902222,653.695007 455.941071,741.506714 455.820007,829.318115 
	C455.811554,835.430908 455.317535,841.717834 453.830994,847.616821 
	C450.898407,859.254272 443.180878,870.220154 427.456512,871.822205 
	C415.947906,872.994751 404.823944,866.905762 398.599609,855.169739 
	C394.501556,847.442871 393.797455,839.030823 393.802979,830.460266 
	C393.837585,776.806885 393.820160,723.153503 393.820007,668.500061 
M1345.394653,860.038086 
	C1345.089966,858.572998 1344.795288,857.105774 1344.479370,855.643127 
	C1334.650879,810.138062 1324.828247,764.631775 1314.988281,719.129211 
	C1303.742798,667.126465 1292.497437,615.123596 1281.206421,563.130676 
	C1279.808472,556.693115 1278.636597,555.846375 1272.029907,555.839783 
	C1249.202393,555.817078 1226.374878,555.820068 1203.547363,555.837341 
	C1196.463867,555.842712 1195.318481,556.709106 1193.792358,563.710327 
	C1167.587891,683.921875 1141.400879,804.137207 1115.238525,924.357971 
	C1113.811523,930.915283 1115.506226,932.972778 1122.200073,932.986694 
	C1141.695068,933.027344 1161.190186,933.012146 1180.685181,932.995728 
	C1188.519897,932.989136 1189.719116,931.817139 1190.978882,924.047424 
	C1193.508789,908.446716 1196.299805,892.886597 1198.645020,877.259033 
	C1199.195312,873.592773 1200.710327,872.478027 1204.084839,872.486206 
	C1225.745728,872.539062 1247.406982,872.531494 1269.068115,872.493469 
	C1272.168335,872.488037 1273.782104,873.412354 1274.313599,876.900818 
	C1276.718628,892.688721 1279.480835,908.421814 1282.046509,924.185669 
	C1283.229736,931.455139 1284.540894,932.959290 1290.968262,932.978088 
	C1311.796021,933.039124 1332.624390,933.033997 1353.452271,932.979126 
	C1359.467896,932.963318 1360.791748,931.125549 1359.516235,925.209106 
	C1354.891113,903.754578 1350.279175,882.297119 1345.394653,860.038086 
M145.077255,558.515015 
	C122.115677,567.100647 104.303261,581.818787 93.855225,604.108032 
	C74.305305,645.814758 81.025375,697.610046 117.246979,733.527100 
	C130.894928,747.060242 146.636520,758.506409 161.622437,770.658813 
	C176.482788,782.709473 191.917145,794.070740 206.485733,806.456543 
	C217.006378,815.400818 221.033401,827.557068 219.989929,841.422974 
	C218.962418,855.077209 210.185211,867.479736 198.822922,870.809509 
	C182.479202,875.599121 166.307465,866.582031 162.068008,849.211914 
	C160.128036,841.263367 160.457718,832.743713 159.939987,824.471680 
	C159.621201,819.378418 157.726990,816.648132 152.919373,816.609619 
	C132.593948,816.446472 112.265915,816.455933 91.940178,816.596497 
	C87.502319,816.627136 84.900993,819.119690 84.963745,823.906982 
	C85.055443,830.903931 84.708374,837.921936 85.122162,844.896851 
	C87.388123,883.092041 105.268578,911.360535 140.121628,927.541077 
	C164.790924,938.993713 190.983429,939.588623 217.381958,934.287415 
	C242.082474,929.327209 262.146179,916.906555 276.960297,896.419067 
	C287.567352,881.749695 292.582520,865.057922 294.369690,847.186951 
	C297.375122,817.133850 290.838867,790.009033 270.423096,766.986633 
	C256.289948,751.049072 239.099396,738.649475 222.552292,725.491516 
	C206.014908,712.341248 189.360153,699.317261 173.268021,685.636597 
	C163.930008,677.697998 158.859344,666.951538 158.456207,654.507751 
	C158.043060,641.755249 160.299606,629.738403 171.487976,621.663757 
	C187.859726,609.848328 211.316086,619.603149 215.655655,640.379028 
	C217.335876,648.423096 217.032104,656.901672 217.405838,665.192444 
	C217.727188,672.321472 219.331345,674.153015 226.233871,674.161255 
	C245.394989,674.184021 264.556152,674.182617 283.717316,674.161987 
	C290.437195,674.154724 292.541412,672.322144 292.402374,665.642395 
	C292.201630,655.997864 292.315735,646.257019 290.980865,636.741699 
	C285.614441,598.488770 264.905579,571.612183 228.625504,558.311096 
	C201.380753,548.322449 173.417419,549.412170 145.077255,558.515015 
z"/>
<path fill="#FEFEFF" opacity="1.000000" stroke="none" 
	d="
M814.873779,922.713074 
	C814.686768,931.400146 813.050354,932.999512 804.797485,933.000549 
	C785.967590,933.002991 767.137634,933.005554 748.307739,932.999329 
	C740.235291,932.996643 738.822693,931.578918 738.821777,923.317200 
	C738.813049,845.164734 738.819580,767.012268 738.798645,688.859802 
	C738.798096,686.802612 738.536255,684.745605 737.183838,682.336914 
	C736.099121,683.866577 734.871887,685.315430 733.951233,686.938171 
	C721.645142,708.626099 709.382202,730.338562 697.107910,752.044556 
	C696.126038,753.781006 695.151611,755.521851 694.152344,757.248230 
	C690.032166,764.366394 688.270142,764.437927 684.291138,757.414795 
	C671.098083,734.128357 657.976440,710.801514 644.789185,687.511780 
	C643.772217,685.715698 642.456848,684.088501 640.028137,682.652710 
	C639.862610,684.833374 639.553101,687.014038 639.552429,689.194763 
	C639.527466,766.514038 639.533020,843.833313 639.522339,921.152588 
	C639.522034,923.147278 639.545227,925.163025 639.282227,927.132141 
	C638.771851,930.952026 636.668762,933.022888 632.596741,933.014282 
	C611.933960,932.970825 591.270996,932.972473 570.608215,933.013733 
	C566.305420,933.022339 564.155029,930.850037 563.770996,926.751465 
	C563.600586,924.932678 563.646973,923.090759 563.646912,921.259338 
	C563.642090,803.114136 563.642212,684.968933 563.643127,566.823730 
	C563.643188,556.616394 564.444153,555.831787 574.834961,555.831055 
	C593.164978,555.829834 611.496948,555.981079 629.823853,555.742126 
	C635.547729,555.667603 639.104919,557.851379 641.826843,562.776672 
	C656.380432,589.111633 671.103577,615.352905 685.793945,641.612061 
	C686.812500,643.432617 688.040955,645.135681 689.635559,647.614258 
	C691.150574,645.335632 692.342041,643.812744 693.250916,642.136658 
	C707.512634,615.836365 721.838074,589.569580 735.885437,563.155029 
	C738.639587,557.976318 742.000977,555.627380 748.021606,555.721191 
	C767.180176,556.019653 786.346252,555.815674 805.509460,555.838501 
	C813.001282,555.847473 814.869202,557.754700 814.869568,565.314148 
	C814.874878,684.292542 814.873596,803.270874 814.873779,922.713074 
z"/>
<path fill="#FEFEFF" opacity="1.000000" stroke="none" 
	d="
M911.829712,933.000549 
	C892.521729,933.000549 873.692017,933.015442 854.862305,932.991882 
	C848.726868,932.984192 846.860168,931.144409 846.614136,925.035706 
	C846.567261,923.871033 846.602173,922.703064 846.602173,921.536621 
	C846.601929,803.226074 846.601501,684.915588 846.602844,566.605042 
	C846.602966,556.734436 847.519104,555.833740 857.529236,555.832397 
	C875.692383,555.829956 893.859314,556.040833 912.016724,555.717834 
	C918.345581,555.605225 922.132385,557.909058 925.149719,563.407471 
	C939.624512,589.784546 954.386841,616.003784 969.068848,642.266907 
	C969.939758,643.825012 971.000610,645.277039 972.525879,647.631714 
	C974.092041,645.300476 975.362793,643.704956 976.320129,641.939514 
	C990.581299,615.640381 1004.885498,589.363831 1018.955933,562.962708 
	C1021.611023,557.980835 1024.888306,555.648682 1030.715454,555.730408 
	C1050.041260,556.001526 1069.373169,555.813965 1088.702759,555.841370 
	C1095.894775,555.851624 1097.844849,557.828979 1097.845337,565.033386 
	C1097.852295,684.343750 1097.852173,803.654053 1097.845825,922.964417 
	C1097.845459,931.153259 1096.007202,932.998047 1087.981323,932.999512 
	C1069.318237,933.002869 1050.655151,933.001953 1031.992065,932.999878 
	C1022.923096,932.998901 1021.793701,931.849609 1021.793030,922.529724 
	C1021.788818,865.707336 1021.790955,808.884949 1021.790894,752.062561 
	C1021.790894,730.899963 1021.799500,709.737366 1021.776001,688.574768 
	C1021.773865,686.648926 1021.564819,684.723328 1020.277649,682.359253 
	C1019.182800,683.817749 1017.912354,685.176636 1017.019348,686.749817 
	C1004.053223,709.591736 991.137512,732.462341 978.210693,755.326599 
	C977.801575,756.050232 977.416626,756.787781 976.998291,757.505981 
	C973.043579,764.294434 971.217651,764.351074 967.386780,757.597412 
	C954.264160,734.462646 941.203003,711.292969 928.090759,688.152283 
	C926.975159,686.183411 925.654480,684.330750 924.429077,682.424072 
	C923.987976,682.484680 923.546875,682.545227 923.105774,682.605835 
	C922.898743,684.725037 922.511475,686.844116 922.510620,688.963379 
	C922.479553,765.615295 922.484558,842.267212 922.484497,918.919128 
	C922.484497,920.252197 922.490234,921.585327 922.483032,922.918335 
	C922.436157,931.605774 921.053772,932.974548 911.829712,933.000549 
z"/>
<path fill="#FEFEFF" opacity="1.000000" stroke="none" 
	d="
M393.820007,669.000122 
	C393.820160,723.153503 393.837585,776.806885 393.802979,830.460266 
	C393.797455,839.030823 394.501556,847.442871 398.599609,855.169739 
	C404.823944,866.905762 415.947906,872.994751 427.456512,871.822205 
	C443.180878,870.220154 450.898407,859.254272 453.830994,847.616821 
	C455.317535,841.717834 455.811554,835.430908 455.820007,829.318115 
	C455.941071,741.506714 455.902222,653.695007 455.903748,565.883423 
	C455.903900,556.981384 457.044312,555.837646 465.984070,555.833618 
	C484.812744,555.825134 503.641449,555.815979 522.470093,555.838379 
	C529.974182,555.847290 531.849548,557.750427 531.850098,565.294983 
	C531.855896,651.440308 531.905762,737.585693 531.815857,823.730896 
	C531.793518,845.083496 528.698792,865.862366 518.211426,884.927551 
	C502.097534,914.221375 477.350433,931.191650 444.351379,935.847717 
	C421.746826,939.037231 399.400238,937.689880 378.258026,928.346741 
	C346.882111,914.481262 328.359283,889.829468 321.235748,856.739380 
	C318.909485,845.933472 318.047241,834.625305 318.014618,823.542419 
	C317.761047,737.397827 317.872528,651.252197 317.876404,565.106873 
	C317.876740,557.349792 319.378143,555.846191 327.238617,555.837830 
	C346.400543,555.817322 365.562500,555.811462 384.724365,555.841064 
	C391.989044,555.852295 393.810303,557.711243 393.813141,565.027222 
	C393.826538,599.518188 393.819641,634.009094 393.820007,669.000122 
z"/>
<path fill="#FEFEFF" opacity="1.000000" stroke="none" 
	d="
M1345.528442,860.439392 
	C1350.279175,882.297119 1354.891113,903.754578 1359.516235,925.209106 
	C1360.791748,931.125549 1359.467896,932.963318 1353.452271,932.979126 
	C1332.624390,933.033997 1311.796021,933.039124 1290.968262,932.978088 
	C1284.540894,932.959290 1283.229736,931.455139 1282.046509,924.185669 
	C1279.480835,908.421814 1276.718628,892.688721 1274.313599,876.900818 
	C1273.782104,873.412354 1272.168335,872.488037 1269.068115,872.493469 
	C1247.406982,872.531494 1225.745728,872.539062 1204.084839,872.486206 
	C1200.710327,872.478027 1199.195312,873.592773 1198.645020,877.259033 
	C1196.299805,892.886597 1193.508789,908.446716 1190.978882,924.047424 
	C1189.719116,931.817139 1188.519897,932.989136 1180.685181,932.995728 
	C1161.190186,933.012146 1141.695068,933.027344 1122.200073,932.986694 
	C1115.506226,932.972778 1113.811523,930.915283 1115.238525,924.357971 
	C1141.400879,804.137207 1167.587891,683.921875 1193.792358,563.710327 
	C1195.318481,556.709106 1196.463867,555.842712 1203.547363,555.837341 
	C1226.374878,555.820068 1249.202393,555.817078 1272.029907,555.839783 
	C1278.636597,555.846375 1279.808472,556.693115 1281.206421,563.130676 
	C1292.497437,615.123596 1303.742798,667.126465 1314.988281,719.129211 
	C1324.828247,764.631775 1334.650879,810.138062 1344.479370,855.643127 
	C1344.795288,857.105774 1345.089966,858.572998 1345.528442,860.439392 
M1238.153076,669.319946 
	C1237.643555,667.076416 1237.134033,664.832947 1236.624512,662.589417 
	C1236.046021,662.620056 1235.467529,662.650635 1234.889160,662.681274 
	C1234.489014,664.163147 1233.963745,665.623840 1233.708618,667.130310 
	C1231.624512,679.434937 1229.588013,691.747742 1227.542603,704.058960 
	C1221.734009,739.022949 1215.942261,773.989746 1210.099121,808.947937 
	C1209.500366,812.530579 1210.427124,814.117798 1214.427002,814.070679 
	C1229.090576,813.897827 1243.757812,813.946350 1258.422852,814.042908 
	C1261.919434,814.065918 1263.147217,813.146301 1262.403320,809.346130 
	C1260.390015,799.061584 1258.796387,788.695251 1257.012451,778.365479 
	C1250.783203,742.294922 1244.543823,706.226196 1238.153076,669.319946 
z"/>
<path fill="#FEFEFF" opacity="1.000000" stroke="none" 
	d="
M145.431656,558.343994 
	C173.417419,549.412170 201.380753,548.322449 228.625504,558.311096 
	C264.905579,571.612183 285.614441,598.488770 290.980865,636.741699 
	C292.315735,646.257019 292.201630,655.997864 292.402374,665.642395 
	C292.541412,672.322144 290.437195,674.154724 283.717316,674.161987 
	C264.556152,674.182617 245.394989,674.184021 226.233871,674.161255 
	C219.331345,674.153015 217.727188,672.321472 217.405838,665.192444 
	C217.032104,656.901672 217.335876,648.423096 215.655655,640.379028 
	C211.316086,619.603149 187.859726,609.848328 171.487976,621.663757 
	C160.299606,629.738403 158.043060,641.755249 158.456207,654.507751 
	C158.859344,666.951538 163.930008,677.697998 173.268021,685.636597 
	C189.360153,699.317261 206.014908,712.341248 222.552292,725.491516 
	C239.099396,738.649475 256.289948,751.049072 270.423096,766.986633 
	C290.838867,790.009033 297.375122,817.133850 294.369690,847.186951 
	C292.582520,865.057922 287.567352,881.749695 276.960297,896.419067 
	C262.146179,916.906555 242.082474,929.327209 217.381958,934.287415 
	C190.983429,939.588623 164.790924,938.993713 140.121628,927.541077 
	C105.268578,911.360535 87.388123,883.092041 85.122162,844.896851 
	C84.708374,837.921936 85.055443,830.903931 84.963745,823.906982 
	C84.900993,819.119690 87.502319,816.627136 91.940178,816.596497 
	C112.265915,816.455933 132.593948,816.446472 152.919373,816.609619 
	C157.726990,816.648132 159.621201,819.378418 159.939987,824.471680 
	C160.457718,832.743713 160.128036,841.263367 162.068008,849.211914 
	C166.307465,866.582031 182.479202,875.599121 198.822922,870.809509 
	C210.185211,867.479736 218.962418,855.077209 219.989929,841.422974 
	C221.033401,827.557068 217.006378,815.400818 206.485733,806.456543 
	C191.917145,794.070740 176.482788,782.709473 161.622437,770.658813 
	C146.636520,758.506409 130.894928,747.060242 117.246979,733.527100 
	C81.025375,697.610046 74.305305,645.814758 93.855225,604.108032 
	C104.303261,581.818787 122.115677,567.100647 145.431656,558.343994 
z"/>
<path fill="#0202FF" opacity="1.000000" stroke="none" 
	d="
M1238.230713,669.738342 
	C1244.543823,706.226196 1250.783203,742.294922 1257.012451,778.365479 
	C1258.796387,788.695251 1260.390015,799.061584 1262.403320,809.346130 
	C1263.147217,813.146301 1261.919434,814.065918 1258.422852,814.042908 
	C1243.757812,813.946350 1229.090576,813.897827 1214.427002,814.070679 
	C1210.427124,814.117798 1209.500366,812.530579 1210.099121,808.947937 
	C1215.942261,773.989746 1221.734009,739.022949 1227.542603,704.058960 
	C1229.588013,691.747742 1231.624512,679.434937 1233.708618,667.130310 
	C1233.963745,665.623840 1234.489014,664.163147 1234.889160,662.681274 
	C1235.467529,662.650635 1236.046021,662.620056 1236.624512,662.589417 
	C1237.134033,664.832947 1237.643555,667.076416 1238.230713,669.738342 
z"/>
</svg>